<svg width="500" height="500" viewBox="0 0 500 500" fill="none" xmlns="http://www.w3.org/2000/svg">
<rect width="500" height="500" rx="150" fill="#171717"/>
<path d="M199.73 212.205C208.106 208.144 216.862 205.225 226 203.448C235.137 201.672 244.147 201.291 253.031 202.306C262.168 203.321 270.925 205.733 279.3 209.54C287.93 213.347 295.798 218.677 302.905 225.53C308.743 231.368 313.819 238.475 318.134 246.85C322.449 254.972 325.621 262.968 327.652 270.836C331.967 284.796 332.601 298.882 329.556 313.096C326.51 327.309 321.307 340.508 313.946 352.691C310.393 358.275 305.951 363.351 300.621 367.92C295.545 372.234 290.088 375.788 284.25 378.58C276.635 382.133 268.386 384.544 259.503 385.813C250.619 387.336 241.99 387.717 233.614 386.956C218.385 386.194 204.933 382.387 193.258 375.534C181.836 368.681 172.572 359.924 165.465 349.264C158.612 338.604 154.043 326.548 151.759 313.096C149.729 299.39 150.617 285.43 154.424 271.217C158.485 255.988 164.323 243.678 171.937 234.287C179.805 224.642 189.07 217.281 199.73 212.205ZM211.151 263.221C207.344 266.775 204.425 271.217 202.395 276.547C200.364 281.877 199.095 287.461 198.588 293.298C198.08 298.882 198.461 304.593 199.73 310.431C201.253 316.015 203.537 321.091 206.583 325.66C209.121 329.467 213.69 332.639 220.289 335.178C226.888 337.716 233.741 339.239 240.848 339.746C248.97 340.254 256.076 338.096 262.168 333.274C268.26 328.198 272.828 321.979 275.874 314.619C279.174 307.258 280.696 299.263 280.443 290.633C280.189 282.004 277.904 274.135 273.59 267.029C270.544 261.952 266.229 258.272 260.645 255.988C255.315 253.45 249.604 252.18 243.513 252.18C237.675 251.927 231.837 252.815 226 254.846C220.162 256.622 215.212 259.414 211.151 263.221Z" fill="#F5F5F5"/>
<path d="M329.258 113.044C338.395 113.552 345.756 116.344 351.339 121.42C356.923 126.75 358.446 134.238 355.908 143.883C354.639 148.451 352.735 151.751 350.197 153.782C347.659 156.066 344.613 157.589 341.06 158.35C337.76 159.365 334.08 159.873 330.019 159.873C326.212 159.873 322.405 159.873 318.597 159.873H266.058C264.027 159.619 261.997 159.492 259.966 159.492C258.19 159.746 256.54 159.873 255.017 159.873H250.068V169.391C250.068 172.183 250.068 174.848 250.068 177.386C250.068 180.178 250.195 182.589 250.448 184.62C250.448 198.58 248.418 210.509 244.357 220.408C240.296 230.56 234.585 238.682 227.224 244.774C220.118 251.119 211.488 255.688 201.335 258.48C191.437 261.525 180.523 262.921 168.593 262.668C154.38 262.414 142.197 260.129 132.044 255.815C121.892 251.5 113.516 245.408 106.917 237.54C100.318 229.672 95.3682 220.154 92.0686 208.986C89.0229 198.072 87.5 185.762 87.5 172.056C87.5 156.32 87.6269 144.39 87.8807 136.268C88.1345 128.146 90.4189 122.309 94.7337 118.755C99.0485 115.456 106.536 113.679 117.196 113.425C127.856 113.171 143.466 113.044 164.025 113.044C183.822 113.044 203.366 113.044 222.656 113.044C241.946 113.298 261.362 113.298 280.906 113.044C283.444 113.044 286.109 112.918 288.901 112.664C291.693 112.664 294.866 112.664 298.419 112.664C301.973 112.664 306.161 112.664 310.983 112.664C316.059 112.664 322.151 112.791 329.258 113.044ZM130.141 184.239C130.902 198.199 134.709 207.844 141.562 213.174C145.37 215.966 149.938 218.123 155.268 219.646C160.598 221.169 165.928 221.804 171.259 221.55C176.589 221.296 181.665 220.154 186.487 218.123C191.564 216.347 195.752 213.428 199.051 209.367C202.097 205.813 204.254 202.26 205.523 198.707C207.046 195.153 207.935 191.473 208.188 187.666C208.696 183.858 208.823 179.797 208.569 175.483C208.569 171.168 208.442 166.218 208.188 160.634L162.502 160.634L130.902 159.873C130.648 162.411 130.395 165.076 130.141 167.868C129.633 172.691 129.633 178.148 130.141 184.239Z" fill="#F5F5F5"/>
<path d="M355.177 220.03C349.478 219.804 343.546 220.444 337.383 221.951C331.439 223.331 325.338 224.948 319.082 226.802C313.045 228.529 307.054 230.083 301.11 231.463C295.04 232.623 289.028 232.87 283.074 232.204C270.128 230.593 260.03 225.286 252.781 216.283C245.624 206.934 241.985 195.553 241.862 182.143C241.894 175.09 243.485 168.456 246.637 162.24C249.662 155.805 253.635 149.994 258.554 144.809C263.567 139.278 269.197 134.562 275.444 130.662C281.692 126.761 287.927 123.601 294.15 121.181C298.267 119.683 302.795 118.388 307.733 117.295C312.544 115.983 317.279 115.301 321.938 115.249C326.817 115.07 331.573 115.694 336.207 117.121C340.935 118.202 345.227 120.56 349.084 124.195C351.613 126.545 353.309 129.229 354.172 132.247C355.256 135.139 355.426 137.971 354.682 140.745C354.159 143.392 352.832 145.916 350.702 148.318C348.792 150.594 346.281 152.336 343.17 153.547C339.492 154.791 335.843 155.578 332.225 155.909C328.606 156.24 324.923 156.461 321.177 156.572C317.431 156.683 313.703 157.078 309.991 157.755C306.499 158.306 303.104 159.533 299.807 161.437C294.624 164.136 290.956 167.426 288.801 171.308C286.646 175.19 285.734 178.941 286.065 182.56C286.615 186.052 288.502 189.066 291.724 191.601C295.167 194.01 299.894 195.091 305.906 194.844C311.351 194.631 316.982 193.724 322.799 192.124C328.617 190.524 334.324 188.987 339.921 187.514C345.738 185.914 351.462 184.661 357.093 183.754C362.944 182.721 368.627 182.664 374.14 183.584C384.82 185.331 393.214 189.717 399.321 196.742C405.649 203.64 409.714 211.697 411.518 220.913C413.322 230.129 412.64 239.608 409.472 249.35C406.524 258.965 401.225 267.3 393.575 274.355C387.962 279.354 381.419 284.011 373.945 288.326C366.692 292.514 358.994 295.932 350.852 298.582C342.93 301.104 334.719 302.62 326.222 303.13C317.944 303.513 310.147 302.446 302.832 299.929C297.724 298.188 293.791 295.184 291.033 290.914C288.368 286.298 286.963 281.834 286.818 277.522C286.766 272.863 288.117 268.858 290.873 265.509C293.628 262.16 298.029 260.645 304.075 260.964C308.988 261.352 314.56 261.358 320.792 260.984C326.897 260.39 332.748 259.357 338.345 257.884C343.943 256.411 348.939 254.405 353.335 251.867C357.951 249.202 361.337 245.928 363.492 242.046C366.551 236.177 367.048 231.201 364.984 227.117C362.792 222.814 359.523 220.452 355.177 220.03Z" fill="#F5F5F5"/>
</svg>
